<svg width="1253" height="1497" viewBox="0 0 1253 1497" fill="none" xmlns="http://www.w3.org/2000/svg">
<path d="M534.177 0L676.849 0.334991C676.819 7.52499 676.349 24.242 677.539 30.656C808.159 51.241 920.229 113.523 998.719 221.591C1030.59 266.088 1055.08 315.425 1071.27 367.709C1076.24 383.295 1079.76 400.043 1084.39 414.527C1085.2 416.167 1084.97 416.22 1085.2 418.099L1085.29 418.126C1085.59 418.435 1085.62 418.758 1085.75 419.202C1085.57 419.974 1084.89 420.388 1084.31 421.004L1084.88 421.274C1094.99 417.436 1112.66 413.727 1121.33 421.953C1130.58 426.544 1136.38 429.959 1142.87 438.489C1149.84 444.764 1161.19 465.861 1164.18 474.816C1166.18 476.663 1170.88 480.323 1172.11 481.664C1184.64 495.327 1191.42 514.551 1194.51 532.329C1196.32 536.049 1199.09 554.038 1199.3 558.581C1214.64 559.884 1231.25 557.382 1246.3 559.535C1247 559.636 1246.23 561.121 1246.18 561.227C1248.58 563.454 1251.35 566.133 1251.15 569.55C1250.21 585.132 1258.35 651.06 1246.27 657.53L1246.12 658.908C1228.58 658.618 1196.38 656.997 1179.71 658.859C1187.35 659.939 1234.23 658.729 1236.02 659.83L1236.24 659.678C1236.34 659.926 1236.58 660.215 1236.02 660.432C1230.17 662.709 1204.51 659.459 1200.8 661.129C1200.4 661.956 1199.94 665.728 1199.57 667.305C1198.83 671.668 1198.47 675.572 1197.81 679.803C1195.8 688.954 1194.94 697.604 1192.15 706.68C1188.25 721.177 1179.61 745.867 1164.31 751.627C1155.56 774.277 1142.59 798.657 1119.11 809.137C1104.99 815.447 1093.92 811.897 1080.37 807.077L1080.03 808.537L1080.93 809.247C1073.23 811.907 1067.51 808.477 1060.78 804.737L1059.51 804.027L1057.28 804.927C1061.27 808.057 1063.67 809.097 1067.95 811.697C1064.77 825.017 1057.53 848.287 1052.78 860.867C1047.47 874.867 1043.34 888.937 1038.13 902.977C1018.92 954.717 998.759 997.227 969.099 1043.65C966.469 1047.66 963.759 1051.63 960.989 1055.55C958.059 1059.58 941.958 1080.48 941.638 1083.42C940.588 1088.61 939.229 1093.91 938.039 1099.1C928.209 1151.72 927.109 1198.59 958.229 1245.73C967.129 1259.19 979.669 1271.03 991.319 1282.25C1009.62 1300.64 994.759 1310.24 979.359 1326.14C876.179 1432.67 729.009 1505 578.375 1495.21C440.094 1486.07 308.364 1414.39 216.473 1312.12C207.395 1302.02 203.212 1289.49 217.892 1281.87C220.677 1273.93 245.5 1248.43 252.084 1238.23C274.365 1203.73 278.493 1161.75 273.844 1121.81C272.594 1111.06 271.135 1099.89 267.535 1089.63C263.828 1079.08 236.406 1044.33 228.373 1031.04C189.888 967.347 151.91 885.887 136.157 813.077C162.431 811.117 175.551 786.397 186.415 765.767C208.168 786.587 248.475 818.237 275.355 831.017L275.853 829.877C273.793 825.377 266.596 823.737 262.602 821.297C244.472 810.217 227.066 797.367 210.863 783.627C203.776 777.607 194.819 768.577 187.267 764.047C181.105 766.847 175.693 779.417 172.194 785.557C162.961 801.737 141.658 814.977 122.796 810.067C127.727 808.307 127.516 809.427 130.514 806.137L130.129 803.857C111.518 815.307 92.7885 819.277 75.2115 802.977C74.4295 801.657 73.3425 801.457 71.9655 800.897C61.3035 796.847 43.2765 763.677 39.7745 752.067C23.5225 743.887 17.1305 723.147 11.6305 707.039C7.9505 691.908 4.76952 678.582 2.98252 662.887C2.05852 659.219 2.2815 656.748 1.8165 653.068C0.951505 649.463 1.09751 648.928 1.03751 645.212C-1.04149 620.892 -0.578483 562.253 7.90452 539.371C10.9825 517.223 19.9425 488.08 39.8515 475.56C44.4805 461.701 56.4525 438.632 68.6385 430.313C74.5415 425.621 78.0045 423.879 85.1455 421.65C93.0395 416.931 103.048 417.518 111.715 419.727C115.417 420.652 119.026 421.921 122.491 423.517C119.949 420.843 120.49 418.098 121.585 414.977C125.141 412.008 123.873 412.923 129.236 412.339C126.256 412.16 125.954 412.388 123.342 411.1L122.761 408.811C138.792 346.791 161.393 288.396 197.943 235.332C257.656 149.748 342.973 85.306 441.626 51.275C474.531 40.025 500.175 34.836 534.31 28.558L534.177 0Z" fill="#1A012F" style="fill:#1A012F;fill:color(display-p3 0.1020 0.0039 0.1843);fill-opacity:1;"/>
<path d="M1024.38 761.307C1030.27 772.217 1035.46 781.697 1042.69 791.787C1045.23 794.137 1047.67 796.597 1050.01 799.147C1052.26 801.237 1054.52 803.767 1057.28 804.927C1061.27 808.057 1063.67 809.097 1067.95 811.697C1064.77 825.017 1057.53 848.287 1052.78 860.867C1047.47 874.867 1043.34 888.937 1038.13 902.977C1018.92 954.717 998.759 997.227 969.099 1043.65C966.469 1047.66 963.759 1051.63 960.989 1055.55C958.059 1059.58 941.958 1080.48 941.638 1083.42C940.588 1088.61 939.228 1093.91 938.038 1099.1C928.208 1151.72 927.109 1198.59 958.229 1245.73C967.129 1259.19 979.669 1271.03 991.319 1282.25C1009.62 1300.64 994.759 1310.24 979.359 1326.14C876.179 1432.67 729.008 1505 578.374 1495.21C440.093 1486.07 308.364 1414.39 216.473 1312.12C207.395 1302.02 203.212 1289.49 217.892 1281.87C220.677 1273.93 245.5 1248.43 252.084 1238.23C274.365 1203.73 278.493 1161.75 273.844 1121.81C272.594 1111.06 271.135 1099.89 267.535 1089.63C263.828 1079.08 236.406 1044.33 228.373 1031.04C189.888 967.347 151.91 885.887 136.157 813.077C162.431 811.117 175.551 786.397 186.415 765.767C208.168 786.587 248.475 818.237 275.355 831.017C312.311 852.007 379.833 878.787 421.946 885.887L429.076 887.447C438.224 888.937 449.515 891.317 458.507 889.377C483.717 883.937 493.634 862.957 511.033 847.367C527.152 832.917 546.294 822.247 567.064 816.137C613.169 802.757 663.059 817.187 697.339 849.667C723.379 874.327 735.729 898.767 777.329 886.317L785.309 884.167C787.239 883.197 799.999 879.907 803.319 878.917C817.749 874.727 832.049 870.107 846.199 865.037C909.299 841.757 973.698 805.447 1024.38 761.307Z" fill="#090634" style="fill:#090634;fill:color(display-p3 0.0353 0.0235 0.2039);fill-opacity:1;"/>
<path d="M1024.38 761.307C1030.27 772.217 1035.46 781.697 1042.69 791.787C1045.23 794.137 1047.67 796.597 1050.01 799.147C1052.26 801.237 1054.52 803.767 1057.28 804.927C1061.27 808.057 1063.67 809.097 1067.95 811.697C1064.77 825.017 1057.53 848.287 1052.78 860.867C1047.47 874.867 1043.34 888.937 1038.13 902.977C1018.92 954.717 998.759 997.227 969.099 1043.65C966.469 1047.66 963.759 1051.63 960.989 1055.55C958.059 1059.58 941.958 1080.48 941.638 1083.42C940.588 1088.61 939.228 1093.91 938.038 1099.1C936.658 1097.37 935.908 1096.74 934.278 1095.22C934.108 1094.93 933.948 1094.63 933.778 1094.34C932.668 1094.57 923.779 1104.82 922.719 1106.38C922.249 1108.06 921.779 1109.04 921.099 1110.63C917.079 1112.12 912.749 1121.61 909.999 1123.76C905.009 1127.13 904.359 1129.69 900.329 1133.85L899.499 1130.49C888.549 1141.16 874.459 1155.12 862.449 1164.4C851.359 1177.73 805.219 1209.97 789.449 1218.35C783.539 1223.52 749.489 1239.47 741.429 1242.97C734.709 1246.57 726.619 1249.4 719.409 1252.14L709.119 1256.1C699.649 1259.99 683.519 1263.76 673.289 1266.32C611.109 1281.88 556.627 1275.48 497.003 1255.15L487.168 1251.59C479.098 1229.37 471.516 1201.18 465.319 1178.31C443.494 1097.74 431.152 1014.91 423.876 931.857C423.101 923.007 419.373 891.717 421.946 885.887L429.076 887.447C438.224 888.937 449.516 891.317 458.507 889.377C483.717 883.937 493.634 862.957 511.033 847.367C527.152 832.917 546.294 822.247 567.064 816.137C613.169 802.757 663.059 817.187 697.339 849.667C723.379 874.327 735.729 898.767 777.329 886.317L785.309 884.167C787.239 883.197 799.999 879.907 803.319 878.917C817.749 874.727 832.049 870.107 846.199 865.037C909.299 841.757 973.698 805.447 1024.38 761.307Z" fill="#1B1C9B" style="fill:#1B1C9B;fill:color(display-p3 0.1059 0.1098 0.6078);fill-opacity:1;"/>
<path d="M1024.38 761.307C1030.27 772.217 1035.46 781.697 1042.69 791.787C1045.23 794.137 1047.67 796.597 1050.01 799.147C1052.26 801.237 1054.52 803.767 1057.28 804.927C1061.27 808.057 1063.67 809.097 1067.95 811.697C1064.77 825.017 1057.53 848.287 1052.78 860.867C1047.47 874.867 1043.34 888.937 1038.13 902.977C1018.92 954.717 998.759 997.227 969.099 1043.65C966.469 1047.66 963.759 1051.63 960.989 1055.55C958.059 1059.58 941.958 1080.48 941.638 1083.42C940.588 1088.61 939.228 1093.91 938.038 1099.1C936.658 1097.37 935.908 1096.74 934.278 1095.22C934.108 1094.93 933.948 1094.63 933.778 1094.34C932.668 1094.57 923.779 1104.82 922.719 1106.38C922.249 1108.06 921.779 1109.04 921.099 1110.63C917.079 1112.12 912.749 1121.61 909.999 1123.76C905.009 1127.13 904.359 1129.69 900.329 1133.85L899.499 1130.49C888.549 1141.16 874.459 1155.12 862.449 1164.4C851.359 1177.73 805.219 1209.97 789.449 1218.35C783.539 1223.52 749.488 1239.47 741.428 1242.97C734.708 1246.57 726.618 1249.4 719.408 1252.14C727.108 1223.99 736.899 1198.3 744.329 1168.65C763.449 1092.33 775.569 1017.13 782.109 938.837C782.949 928.717 786.819 891.627 785.309 884.167C787.239 883.197 799.999 879.907 803.319 878.917C817.749 874.727 832.049 870.107 846.199 865.037C909.299 841.757 973.698 805.447 1024.38 761.307Z" fill="#1B1C9B" style="fill:#1B1C9B;fill:color(display-p3 0.1059 0.1098 0.6078);fill-opacity:1;"/>
<path d="M925.109 834.857C931.229 830.727 940.398 825.937 947.018 822.237C951.948 828.087 976.479 842.427 984.569 846.227C976.209 852.487 978.909 853.757 977.689 863.617L976.278 866.527C973.138 879.217 970.238 891.507 966.908 904.267L966.869 905.297C961.889 920.337 957.158 936.817 952.408 952.147C951.908 953.677 951.438 955.017 950.878 956.527C950.588 958.297 950.448 959.167 950.298 960.917C943.088 979.157 937.848 995.907 929.388 1014.64C924.598 1024.68 918.508 1034.78 912.928 1044.47C907.388 1052.46 903.728 1057.17 898.028 1064.85C891.708 1062.87 864.358 1043.22 858.928 1038.29L860.898 1030.04C863.908 1017.05 866.688 1004.49 869.298 991.417C871.668 976.827 874.128 959.927 876.678 945.647C878.638 934.337 878.988 920.397 880.628 908.787C881.768 900.757 882.688 892.707 883.398 884.637C884.088 881.807 884.879 859.177 885.119 854.657C891.519 850.767 892.069 850.807 899.479 851.447C907.689 845.537 917.079 840.427 925.109 834.857Z" fill="url(#paint0_linear_2017_3265)"/>
<path d="M876.678 945.647C891.998 935.377 909.038 920.407 923.908 908.507C930.338 913.337 936.518 916.947 942.798 922.027C940.048 925.757 937.799 928.517 934.819 932.067C922.479 947.367 911.648 963.097 898.798 978.217C891.448 968.537 877.298 956.727 876.678 945.647Z" fill="#0AFB55" style="fill:#0AFB55;fill:color(display-p3 0.0392 0.9843 0.3333);fill-opacity:1;"/>
<path d="M869.298 991.417C872.828 992.607 907.318 1037.76 912.928 1044.47C907.388 1052.46 903.728 1057.17 898.028 1064.85C891.708 1062.87 864.358 1043.22 858.928 1038.29L860.898 1030.04C863.908 1017.05 866.688 1004.49 869.298 991.417Z" fill="#0AFB55" style="fill:#0AFB55;fill:color(display-p3 0.0392 0.9843 0.3333);fill-opacity:1;"/>
<path d="M925.109 834.857C927.279 835.597 956.518 857.637 960.668 860.877C950.268 869.567 938.858 877.407 928.678 886.327C915.178 874.987 905.119 866.657 890.359 857.087C893.839 855.097 896.229 853.827 899.479 851.447C907.689 845.537 917.079 840.427 925.109 834.857Z" fill="#0AFB55" style="fill:#0AFB55;fill:color(display-p3 0.0392 0.9843 0.3333);fill-opacity:1;"/>
<path d="M913.599 994.937C921.789 984.647 928.919 974.177 936.209 963.287C938.969 959.167 944.978 949.627 948.128 946.477C950.198 946.577 951.059 948.707 951.689 950.397L952.408 952.147C951.908 953.677 951.438 955.017 950.878 956.527C950.588 958.297 950.448 959.167 950.298 960.917C943.088 979.157 937.848 995.907 929.388 1014.64C924.338 1010.71 917.369 1000.24 913.599 994.937Z" fill="#0AFB55" style="fill:#0AFB55;fill:color(display-p3 0.0392 0.9843 0.3333);fill-opacity:1;"/>
<path d="M942.668 892.887C950.788 886.737 969.498 870.407 976.278 866.527C973.138 879.217 970.238 891.507 966.908 904.267C960.778 902.347 951.759 897.177 945.709 894.327L942.668 892.887Z" fill="#0AFB55" style="fill:#0AFB55;fill:color(display-p3 0.0392 0.9843 0.3333);fill-opacity:1;"/>
<path d="M883.398 884.637C887.958 885.907 897.759 895.367 901.479 898.857C895.599 902.877 889.608 906.817 883.928 911.117C881.188 913.187 881.338 911.437 880.628 908.787C881.768 900.757 882.688 892.707 883.398 884.637Z" fill="#0AFB55" style="fill:#0AFB55;fill:color(display-p3 0.0392 0.9843 0.3333);fill-opacity:1;"/>
<path d="M1044.69 802.277C1046.19 799.977 1047.39 800.697 1050.01 799.147C1052.26 801.237 1054.52 803.767 1057.28 804.927C1061.27 808.057 1063.67 809.097 1067.95 811.697C1064.77 825.017 1057.53 848.287 1052.78 860.867C1047.47 874.867 1043.34 888.937 1038.13 902.977C1018.92 954.717 998.759 997.227 969.099 1043.65C966.469 1047.66 963.759 1051.63 960.989 1055.55C957.969 1050.34 956.099 1045.63 953.499 1040.9C952.939 1030.84 949.909 1031.29 959.339 1030.69C961.519 1027.51 965.339 1020.17 967.369 1016.52C973.439 1005.64 979.059 994.817 984.489 983.607C979.189 973.977 974.539 962.927 969.089 953.637L968.278 952.227C962.978 953.567 955.758 954.657 950.878 956.527C951.438 955.017 951.908 953.677 952.408 952.147C957.158 936.817 961.889 920.337 966.869 905.297L966.908 904.267C970.238 891.507 973.138 879.217 976.278 866.527L977.689 863.617C990.389 853.007 1003.02 842.317 1015.6 831.557C1021.66 826.407 1031.25 817.767 1037.69 813.637C1039.04 816.787 1041.48 822.967 1043.07 825.697C1046.09 815.397 1045.98 813.037 1044.69 802.277Z" fill="#37CA8D" style="fill:#37CA8D;fill:color(display-p3 0.2157 0.7922 0.5529);fill-opacity:1;"/>
<path d="M977.689 863.617C990.389 853.007 1003.02 842.317 1015.6 831.557C1021.66 826.407 1031.25 817.767 1037.69 813.637C1039.04 816.787 1041.48 822.967 1043.07 825.697C1042.67 826.527 1042.75 826.357 1042.42 827.407L1041.78 830.487C1036.16 850.297 1029.84 869.907 1022.83 889.267C1019.02 899.747 1011.59 917.257 1008.75 926.987C990.799 921.017 982.519 917.137 966.869 905.297L966.908 904.267C970.238 891.507 973.138 879.217 976.278 866.527L977.689 863.617Z" fill="#EC1844" style="fill:#EC1844;fill:color(display-p3 0.9255 0.0941 0.2667);fill-opacity:1;"/>
<path d="M966.869 905.297C982.519 917.137 990.799 921.017 1008.75 926.987L1007.84 928.037C1004.6 938.537 995.849 959.137 990.939 968.937C989.989 972.347 986.209 980.107 984.489 983.607C979.189 973.977 974.539 962.927 969.089 953.637L968.278 952.227C962.978 953.567 955.758 954.657 950.878 956.527C951.438 955.017 951.908 953.677 952.408 952.147C957.158 936.817 961.889 920.337 966.869 905.297Z" fill="#090634" style="fill:#090634;fill:color(display-p3 0.0353 0.0235 0.2039);fill-opacity:1;"/>
<path d="M1007.84 928.037C1004.6 938.537 995.849 959.137 990.939 968.937C988.189 963.937 984.229 954.547 981.829 949.087L981.268 947.787L980.508 946.077C989.858 939.347 998.659 934.227 1007.84 928.037Z" fill="#EC1844" style="fill:#EC1844;fill:color(display-p3 0.9255 0.0941 0.2667);fill-opacity:1;"/>
<path d="M1044.69 802.277C1046.19 799.977 1047.39 800.697 1050.01 799.147C1052.26 801.237 1054.52 803.767 1057.28 804.927C1061.27 808.057 1063.67 809.097 1067.95 811.697C1064.77 825.017 1057.53 848.287 1052.78 860.867C1050.47 857.217 1047.41 847.287 1047.49 843.077C1046.94 839.137 1046.14 827.927 1042.42 827.407C1042.75 826.357 1042.67 826.527 1043.07 825.697C1046.09 815.397 1045.98 813.037 1044.69 802.277Z" fill="#FA9293" style="fill:#FA9293;fill:color(display-p3 0.9804 0.5725 0.5765);fill-opacity:1;"/>
<path d="M959.339 1030.69C967.769 1033.25 965.809 1036.56 969.099 1043.65C966.469 1047.66 963.759 1051.63 960.989 1055.55C957.969 1050.34 956.099 1045.63 953.499 1040.9C952.939 1030.84 949.909 1031.29 959.339 1030.69Z" fill="#FA9293" style="fill:#FA9293;fill:color(display-p3 0.9804 0.5725 0.5765);fill-opacity:1;"/>
<path d="M950.878 956.527C955.758 954.657 962.978 953.567 968.278 952.227L969.089 953.637C974.539 962.927 979.189 973.977 984.489 983.607C979.059 994.817 973.439 1005.64 967.369 1016.52C965.339 1020.17 961.519 1027.51 959.339 1030.69C949.909 1031.29 952.939 1030.84 953.499 1040.9C956.099 1045.63 957.969 1050.34 960.989 1055.55C958.059 1059.58 941.958 1080.48 941.638 1083.42C940.588 1088.61 939.228 1093.91 938.038 1099.1C936.658 1097.37 935.908 1096.74 934.278 1095.22C934.108 1094.93 933.948 1094.63 933.778 1094.34C932.668 1094.57 923.779 1104.82 922.719 1106.38C922.249 1108.06 921.779 1109.04 921.099 1110.63C917.079 1112.12 912.749 1121.61 909.999 1123.76C905.009 1127.13 904.359 1129.69 900.329 1133.85L899.499 1130.49C888.549 1141.16 874.459 1155.12 862.449 1164.4C866.709 1156.73 872.099 1151.26 871.079 1142.43L871.099 1141.85C869.799 1139.98 861.339 1122.09 859.589 1118.54C872.929 1112.06 887.338 1104.74 900.908 1099.07C894.458 1094.27 887.989 1089.51 881.489 1084.78C884.389 1081.63 888.608 1076.95 891.278 1073.61C893.568 1070.72 895.818 1067.8 898.028 1064.85C903.728 1057.17 907.388 1052.46 912.928 1044.47C918.508 1034.78 924.598 1024.68 929.388 1014.64C937.848 995.907 943.088 979.157 950.298 960.917C950.448 959.167 950.588 958.297 950.878 956.527Z" fill="#090634" style="fill:#090634;fill:color(display-p3 0.0353 0.0235 0.2039);fill-opacity:1;"/>
<path d="M953.499 1040.9C956.099 1045.63 957.969 1050.34 960.989 1055.55C958.059 1059.58 941.958 1080.48 941.638 1083.42C940.588 1088.61 939.228 1093.91 938.038 1099.1C936.658 1097.37 935.908 1096.74 934.278 1095.22C934.108 1094.93 933.948 1094.63 933.778 1094.34C932.668 1094.57 923.779 1104.82 922.719 1106.38C922.249 1108.06 921.779 1109.04 921.099 1110.63C917.079 1112.12 912.749 1121.61 909.999 1123.76C905.009 1127.13 904.359 1129.69 900.329 1133.85L899.499 1130.49C888.549 1141.16 874.459 1155.12 862.449 1164.4C866.709 1156.73 872.099 1151.26 871.079 1142.43L871.099 1141.85C889.069 1126.36 897.598 1112.43 912.508 1097.47C915.128 1093.54 922.659 1085.17 923.239 1081.56L920.699 1078.05C921.959 1077.04 925.858 1077.15 926.758 1076.64C936.888 1070.9 948.329 1049.94 953.499 1040.9Z" fill="#37CA8D" style="fill:#37CA8D;fill:color(display-p3 0.2157 0.7922 0.5529);fill-opacity:1;"/>
<path d="M925.229 1097.58C930.249 1093.36 936.618 1087.29 941.638 1083.42C940.588 1088.61 939.228 1093.91 938.038 1099.1C936.658 1097.37 935.908 1096.74 934.278 1095.22C934.108 1094.93 933.948 1094.63 933.778 1094.34C932.668 1094.57 923.779 1104.82 922.719 1106.38L921.089 1106.71C921.329 1105.23 921.439 1103.95 922.219 1102.64L925.229 1097.58Z" fill="#F68B9A" style="fill:#F68B9A;fill:color(display-p3 0.9647 0.5451 0.6039);fill-opacity:1;"/>
<path d="M922.719 1106.38C922.249 1108.06 921.779 1109.04 921.099 1110.63C917.079 1112.12 912.749 1121.61 909.999 1123.76C905.009 1127.13 904.359 1129.69 900.329 1133.85L899.499 1130.49C904.409 1125.41 917.899 1112.19 921.089 1106.71L922.719 1106.38Z" fill="#141B6F" style="fill:#141B6F;fill:color(display-p3 0.0784 0.1059 0.4353);fill-opacity:1;"/>
<path d="M950.878 956.527C955.758 954.657 962.978 953.567 968.278 952.227L969.089 953.637C974.539 962.927 979.189 973.977 984.489 983.607C979.059 994.817 973.439 1005.64 967.369 1016.52C955.439 996.957 954.608 982.207 950.298 960.917C950.448 959.167 950.588 958.297 950.878 956.527Z" fill="#EC1844" style="fill:#EC1844;fill:color(display-p3 0.9255 0.0941 0.2667);fill-opacity:1;"/>
<path d="M858.928 1038.29C864.358 1043.22 891.708 1062.87 898.028 1064.85C895.818 1067.8 893.568 1070.72 891.278 1073.61C888.608 1076.95 884.389 1081.63 881.489 1084.78C865.239 1102.05 852.118 1117.18 832.148 1131.03L821.559 1138.53C833.759 1117.17 837.709 1101.09 846.559 1080.77C848.639 1073.99 851.028 1067.2 853.128 1060.43C854.518 1053.26 857.368 1045.69 858.928 1038.29Z" fill="#04A092" style="fill:#04A092;fill:color(display-p3 0.0157 0.6275 0.5725);fill-opacity:1;"/>
<path d="M853.128 1060.43C855.848 1061.44 863.138 1069.32 865.878 1071.98C860.848 1074.59 851.329 1080.46 846.559 1080.77C848.639 1073.99 851.028 1067.2 853.128 1060.43Z" fill="#0AFB55" style="fill:#0AFB55;fill:color(display-p3 0.0392 0.9843 0.3333);fill-opacity:1;"/>
<path d="M980.439 802.817C990.559 806.747 1000.07 810.607 1009.5 816.007C1014.34 812.287 1019.82 807.487 1025.11 804.607C1025.85 804.197 1029.14 806.817 1029.6 807.157C1027.52 814.547 1006.04 827.287 999.569 834.257C996.889 837.127 987.999 843.407 984.569 846.227C976.479 842.427 951.948 828.087 947.018 822.237C957.968 816.017 969.589 809.217 980.439 802.817Z" fill="#0AFB55" style="fill:#0AFB55;fill:color(display-p3 0.0392 0.9843 0.3333);fill-opacity:1;"/>
<path d="M871.079 1142.43C872.099 1151.26 866.709 1156.73 862.449 1164.4C851.359 1177.73 805.219 1209.97 789.449 1218.35C783.289 1216.15 788.089 1216.07 791.339 1210.06C796.169 1205.19 811.519 1193.95 817.869 1189.23C837.149 1174.88 853.329 1157.74 871.079 1142.43Z" fill="#FA9293" style="fill:#FA9293;fill:color(display-p3 0.9804 0.5725 0.5765);fill-opacity:1;"/>
<path d="M791.339 1210.06C788.089 1216.07 783.289 1216.15 789.449 1218.35C783.539 1223.52 749.488 1239.47 741.428 1242.97C741.568 1242.76 786.719 1213.04 791.339 1210.06Z" fill="#F68B9A" style="fill:#F68B9A;fill:color(display-p3 0.9647 0.5451 0.6039);fill-opacity:1;"/>
<path d="M1042.69 791.787C1045.23 794.137 1047.67 796.597 1050.01 799.147C1047.39 800.697 1046.19 799.977 1044.69 802.277C1043.47 799.487 1042.86 794.857 1042.69 791.787Z" fill="#FA9293" style="fill:#FA9293;fill:color(display-p3 0.9804 0.5725 0.5765);fill-opacity:1;"/>
<path d="M785.309 884.167C786.819 891.627 782.949 928.717 782.109 938.837C775.569 1017.13 763.449 1092.33 744.329 1168.65C736.899 1198.3 727.108 1223.99 719.408 1252.14L709.119 1256.1C710.929 1248.04 715.238 1237.43 717.788 1229.25C751.458 1121.09 773.239 999.647 777.329 886.317L785.309 884.167Z" fill="#12F7FE" style="fill:#12F7FE;fill:color(display-p3 0.0706 0.9686 0.9961);fill-opacity:1;"/>
<path d="M421.946 885.887L429.076 887.447C438.412 1018.63 454.453 1129.22 497.003 1255.15L487.168 1251.59C479.098 1229.37 471.516 1201.18 465.319 1178.31C443.494 1097.74 431.152 1014.91 423.876 931.857C423.101 923.007 419.373 891.717 421.946 885.887Z" fill="#12F7FE" style="fill:#12F7FE;fill:color(display-p3 0.0706 0.9686 0.9961);fill-opacity:1;"/>
<path d="M186.415 765.767C208.168 786.587 248.475 818.237 275.355 831.017C312.311 852.007 379.833 878.787 421.946 885.887C419.373 891.717 423.101 923.007 423.876 931.857C431.152 1014.91 443.494 1097.74 465.319 1178.31C471.516 1201.18 479.098 1229.37 487.168 1251.59C449.574 1235.72 419.591 1222.06 386.014 1197.92C373.849 1189.18 363.476 1180.27 351.879 1171.56C366.177 1197.97 380.287 1224.48 394.209 1251.09C422.789 1304.81 449.665 1356.67 466.895 1415.59C468.294 1420.38 473.184 1436.33 473.355 1440.52C390.986 1415.25 311.806 1365.2 249.352 1306.41C239.111 1296.77 232.189 1283.35 217.892 1281.87C220.677 1273.93 245.5 1248.43 252.084 1238.23C274.365 1203.73 278.493 1161.75 273.844 1121.81C272.594 1111.06 271.135 1099.89 267.535 1089.63C263.828 1079.08 236.406 1044.33 228.373 1031.04C189.888 967.347 151.91 885.887 136.157 813.077C162.431 811.117 175.551 786.397 186.415 765.767Z" fill="#1B1C9B" style="fill:#1B1C9B;fill:color(display-p3 0.1059 0.1098 0.6078);fill-opacity:1;"/>
<path d="M162.728 829.857C180.765 821.067 194.228 812.557 211.238 801.897C215.62 804.607 219.018 806.297 222.464 810.127L222.93 810.437C235.008 817.477 251.406 830.577 264.363 838.817C268.299 917.337 296.368 1006.04 331.49 1075.85C337.882 1088.56 344.582 1098.66 351.472 1110.72C356.636 1117.22 361.654 1125.9 367.009 1133L364.827 1134.94C358.97 1130.87 352.78 1127.42 347.337 1122.88C293.913 1092.56 248.725 1019.16 221.1 965.567C217.226 958.057 209.214 941.267 207.48 933.827C194.206 917.337 172.59 851.257 162.728 829.857Z" fill="#37CA8D" style="fill:#37CA8D;fill:color(display-p3 0.2157 0.7922 0.5529);fill-opacity:1;"/>
<path d="M162.728 829.857C180.765 821.067 194.228 812.557 211.238 801.897C215.62 804.607 219.018 806.297 222.464 810.127L222.93 810.437C223.113 815.787 224.682 818.527 226.728 823.457C217.349 827.807 208.47 832.427 199.243 836.797C204.757 875.437 214.457 913.367 228.171 949.917C230.873 957.337 237.269 974.047 241.54 980.397L240.066 981.537C226.84 958.037 215.292 930.937 202.993 909.487C204.22 917.477 208.741 927.857 207.48 933.827C194.206 917.337 172.59 851.257 162.728 829.857Z" fill="#12F7FE" style="fill:#12F7FE;fill:color(display-p3 0.0706 0.9686 0.9961);fill-opacity:1;"/>
<path d="M162.728 829.857C180.765 821.067 194.228 812.557 211.238 801.897C215.62 804.607 219.018 806.297 222.464 810.127C206.708 818.687 191.206 828.957 175.365 837.977C184.184 861.357 193.347 886.487 202.993 909.487C204.22 917.477 208.741 927.857 207.48 933.827C194.206 917.337 172.59 851.257 162.728 829.857Z" fill="#BF3ACA" style="fill:#BF3ACA;fill:color(display-p3 0.7490 0.2275 0.7922);fill-opacity:1;"/>
<path d="M351.472 1110.72C356.636 1117.22 361.654 1125.9 367.009 1133L364.827 1134.94C358.97 1130.87 352.78 1127.42 347.337 1122.88C352.772 1123.86 354.507 1125.59 359.585 1127.85L359.616 1127.88L359.683 1127.86C355.618 1120.86 352.588 1118.86 351.472 1110.72Z" fill="#0BC39C" style="fill:#0BC39C;fill:color(display-p3 0.0431 0.7647 0.6118);fill-opacity:1;"/>
<path d="M241.54 980.397C248.356 990.477 244.282 992.997 240.066 981.537L241.54 980.397Z" fill="#0BC39C" style="fill:#0BC39C;fill:color(display-p3 0.0431 0.7647 0.6118);fill-opacity:1;"/>
<path d="M289.431 1115.08C293.933 1118.48 302.896 1129.51 307.478 1134.54C315.017 1178.94 310.997 1217.91 291.501 1258.81C288.666 1264.76 270.771 1302.45 268.227 1303.53L266.235 1301.88C259.026 1294.28 251.716 1286.78 244.305 1279.38C253.806 1270.08 266.364 1256.86 273.274 1245.69C296.159 1208.72 298.744 1156.46 289.431 1115.08Z" fill="#2E2BC0" style="fill:#2E2BC0;fill:color(display-p3 0.1804 0.1686 0.7529);fill-opacity:1;"/>
<path d="M306.1 1158.65L307.975 1158.73C309.048 1186.75 307.728 1209.14 297.684 1236.09C293.531 1247.23 275.967 1281.15 265.085 1285.75C264.217 1284.83 263.39 1284 264.35 1282.51C289.229 1243.98 305.902 1205.56 306.1 1158.65Z" fill="#9194FA" style="fill:#9194FA;fill:color(display-p3 0.5686 0.5804 0.9804);fill-opacity:1;"/>
<path d="M306.1 1158.65C305.526 1156.16 305.162 1154.23 305.032 1151.65L306.051 1150.67C305.815 1150.34 305.58 1150 305.344 1149.67C305.448 1149.58 305.552 1149.49 305.655 1149.41C307.23 1149.74 307.82 1157.77 307.975 1158.73L306.1 1158.65Z" fill="#8156CE" style="fill:#8156CE;fill:color(display-p3 0.5059 0.3373 0.8078);fill-opacity:1;"/>
<path d="M318.415 1171.98C319.249 1172.14 326.008 1172.77 326.028 1173.59C326.768 1203.64 319.611 1237.97 303.416 1263.07C301.494 1264.82 300.272 1265.75 298.997 1262.99C297.001 1258.8 301.451 1251.28 302.956 1246.55C310.841 1221.79 315.999 1198.01 318.415 1171.98Z" fill="#BF3ACA" style="fill:#BF3ACA;fill:color(display-p3 0.7490 0.2275 0.7922);fill-opacity:1;"/>
<path d="M367.009 1133C367.755 1133.75 369.756 1135.82 369.439 1136.91C368.441 1137.4 366.972 1136.21 366.207 1135.75L364.827 1134.94L367.009 1133Z" fill="#2492B3" style="fill:#2492B3;fill:color(display-p3 0.1412 0.5725 0.7020);fill-opacity:1;"/>
<path d="M922.719 1106.38C923.779 1104.82 932.668 1094.57 933.778 1094.34C933.948 1094.63 934.108 1094.93 934.278 1095.22C935.908 1096.74 936.658 1097.37 938.038 1099.1C928.208 1151.72 927.109 1198.59 958.229 1245.73C967.129 1259.19 979.669 1271.03 991.319 1282.25C1009.62 1300.64 994.759 1310.24 979.359 1326.14C876.179 1432.67 729.008 1505 578.374 1495.21C440.093 1486.07 308.364 1414.39 216.473 1312.12C207.395 1302.02 203.212 1289.49 217.892 1281.87C232.189 1283.35 239.111 1296.77 249.352 1306.41C311.806 1365.2 390.986 1415.25 473.355 1440.52C564.988 1466.1 640.629 1468.61 732.479 1440.84C734.839 1425.02 740.188 1408.36 744.768 1393C773.768 1295.77 838.199 1212.97 900.329 1133.85C904.359 1129.69 905.009 1127.13 909.999 1123.76C912.749 1121.61 917.079 1112.12 921.099 1110.63C921.779 1109.04 922.249 1108.06 922.719 1106.38Z" fill="#1B1C9B" style="fill:#1B1C9B;fill:color(display-p3 0.1059 0.1098 0.6078);fill-opacity:1;"/>
<path d="M991.319 1282.25C1009.62 1300.64 994.759 1310.24 979.359 1326.14C876.179 1432.67 729.008 1505 578.374 1495.21C440.093 1486.07 308.364 1414.39 216.473 1312.12C207.395 1302.02 203.212 1289.49 217.892 1281.87C232.189 1283.35 239.111 1296.77 249.352 1306.41C311.806 1365.2 390.986 1415.25 473.355 1440.52C564.988 1466.1 640.629 1468.61 732.479 1440.84C809.669 1415.51 890.899 1370.91 950.079 1314.74C957.819 1307.08 965.798 1299.45 973.288 1291.56C979.878 1283.43 980.719 1282.03 991.319 1282.25Z" fill="#12F7FE" style="fill:#12F7FE;fill:color(display-p3 0.0706 0.9686 0.9961);fill-opacity:1;"/>
<path d="M922.719 1106.38C923.779 1104.82 932.669 1094.57 933.779 1094.34C933.949 1094.63 934.109 1094.93 934.279 1095.22C935.909 1096.74 936.659 1097.37 938.039 1099.1C928.209 1151.72 927.109 1198.59 958.229 1245.73C967.129 1259.19 979.669 1271.03 991.319 1282.25C980.719 1282.03 979.879 1283.43 973.289 1291.56C965.799 1299.45 957.819 1307.08 950.079 1314.74C900.009 1324.53 881.699 1267.72 880.429 1228.52C879.079 1186.85 888.969 1158.6 909.999 1123.76C912.749 1121.61 917.079 1112.12 921.099 1110.63C921.779 1109.04 922.249 1108.06 922.719 1106.38Z" fill="#653BE3" style="fill:#653BE3;fill:color(display-p3 0.3961 0.2314 0.8902);fill-opacity:1;"/>
<path d="M922.718 1106.38C923.778 1104.82 932.668 1094.57 933.778 1094.34C933.948 1094.63 934.108 1094.93 934.278 1095.22C935.908 1096.74 936.658 1097.37 938.038 1099.1C928.208 1151.72 927.109 1198.59 958.229 1245.73C967.129 1259.19 979.668 1271.03 991.318 1282.25C980.718 1282.03 979.878 1283.43 973.288 1291.56C921.978 1243.58 902.379 1180.25 926.239 1113.17C925.989 1112.42 925.438 1109.66 924.628 1109C923.978 1108.48 924.109 1111.82 921.099 1110.63C921.779 1109.04 922.248 1108.06 922.718 1106.38Z" fill="#FA9293" style="fill:#FA9293;fill:color(display-p3 0.9804 0.5725 0.5765);fill-opacity:1;"/>
<path d="M922.719 1106.38C923.779 1104.82 932.668 1094.57 933.778 1094.34C933.948 1094.63 934.108 1094.93 934.278 1095.22C931.448 1101.56 928.959 1106.4 926.239 1113.17C925.989 1112.42 925.438 1109.66 924.628 1109C923.978 1108.48 924.109 1111.82 921.099 1110.63C921.779 1109.04 922.249 1108.06 922.719 1106.38Z" fill="#8156CE" style="fill:#8156CE;fill:color(display-p3 0.5059 0.3373 0.8078);fill-opacity:1;"/>
<path d="M915.309 1225.48C915.869 1222.69 915.909 1222.89 917.749 1220.49C918.969 1223.49 920.228 1226.48 921.538 1229.44C927.898 1244.14 935.639 1256.88 945.319 1269.55C943.609 1272.36 942.029 1275.18 940.309 1277.99L937.678 1274.66C935.718 1272.15 933.879 1268.77 932.219 1266.01C926.669 1256.73 922.118 1246.88 918.658 1236.63C917.408 1232.95 916.279 1229.25 915.309 1225.48Z" fill="#F68B9A" style="fill:#F68B9A;fill:color(display-p3 0.9647 0.5451 0.6039);fill-opacity:1;"/>
<path d="M915.309 1225.48C914.329 1221.55 910.068 1206.54 911.768 1203.17L911.609 1203.47L912.359 1203.73C914.139 1208.38 916.409 1215.65 917.749 1220.49C915.909 1222.89 915.869 1222.69 915.309 1225.48Z" fill="#F8A0C1" style="fill:#F8A0C1;fill:color(display-p3 0.9725 0.6275 0.7569);fill-opacity:1;"/>
<path d="M534.176 0L676.849 0.334991C676.819 7.52499 676.348 24.242 677.538 30.656C808.158 51.241 920.229 113.523 998.719 221.591C1030.59 266.088 1055.08 315.425 1071.27 367.709C1076.24 383.295 1079.76 400.043 1084.39 414.527C1080.54 416.607 1077.54 418.017 1073.7 420.392C1073.4 420.657 1073.11 420.921 1072.82 421.186C1053.05 434.939 1044.66 452.522 1037.14 474.832C1034.87 482.537 1032.98 488.611 1031.96 496.627C1018.64 494.039 980.258 492.209 965.378 491.326C906.938 487.884 848.428 485.987 789.898 485.637C677.738 484.117 565.574 484.018 453.418 485.339C379.358 486.381 311.757 486.801 237.905 492.324C229.521 492.82 220.506 493.324 212.207 494.434C203.957 494.751 195.716 495.262 187.49 495.966C186.934 491.494 183.741 479.652 182.545 474.735C176.238 454.193 167.996 433.791 152.787 418.217C144.613 411.365 139.395 412.268 129.236 412.339C126.256 412.16 125.954 412.388 123.342 411.1L122.761 408.811C138.792 346.791 161.393 288.396 197.943 235.332C257.656 149.748 342.973 85.306 441.626 51.275C474.531 40.025 500.174 34.836 534.309 28.558L534.176 0Z" fill="#1B1C9B" style="fill:#1B1C9B;fill:color(display-p3 0.1059 0.1098 0.6078);fill-opacity:1;"/>
<path d="M677.538 30.656C808.158 51.241 920.229 113.523 998.719 221.591C1030.59 266.088 1055.08 315.425 1071.27 367.709C1076.24 383.295 1079.76 400.043 1084.39 414.527C1080.54 416.607 1077.54 418.017 1073.7 420.392C1073.4 420.657 1073.11 420.921 1072.82 421.186C1053.05 434.939 1044.66 452.522 1037.14 474.832C1018.82 474.24 999.938 474.139 981.568 473.812C979.538 461.032 977.039 448.332 974.089 435.735C942.999 304.548 847.968 193.139 724.218 140.069C702.778 130.874 668.488 121.944 663.558 94.529C657.728 62.104 710.398 55.395 731.508 52.547C729.638 49.625 729.639 49.648 727.099 47.32C715.799 42.247 689.958 35.779 677.188 31.957L677.538 30.656Z" fill="#653BE3" style="fill:#653BE3;fill:color(display-p3 0.3961 0.2314 0.8902);fill-opacity:1;"/>
<path d="M677.538 30.656C808.158 51.241 920.229 113.523 998.719 221.591C1030.59 266.088 1055.08 315.425 1071.27 367.709C1076.24 383.295 1079.76 400.043 1084.39 414.527C1080.54 416.607 1077.54 418.017 1073.7 420.392C1068.67 393.923 1047.7 342.423 1035.87 317.574C978.909 197.904 864.808 93.821 738.398 51.091C735.248 52.676 735.198 52.58 731.508 52.547C729.638 49.625 729.639 49.648 727.099 47.32C715.799 42.247 689.959 35.779 677.189 31.957L677.538 30.656Z" fill="#FA9293" style="fill:#FA9293;fill:color(display-p3 0.9804 0.5725 0.5765);fill-opacity:1;"/>
<path d="M727.099 47.32L738.398 51.091C735.248 52.676 735.198 52.58 731.508 52.547C729.638 49.625 729.639 49.648 727.099 47.32Z" fill="#1B1C9B" style="fill:#1B1C9B;fill:color(display-p3 0.1059 0.1098 0.6078);fill-opacity:1;"/>
<path d="M765.278 106.563C774.658 105.782 784.669 107.607 793.939 109.883C863.409 126.936 924.899 175.187 955.239 240.324C959.999 250.536 966.849 264.543 964.459 275.882C963.609 279.916 959.938 282.32 956.648 284.285C953.678 284.518 948.268 284.305 946.378 281.968C938.488 272.189 931.888 257.904 925.008 247.151C914.238 230.31 901.699 214.669 887.599 200.494C867.209 179.866 848.089 165.619 822.059 152.758C814.989 149.258 807.789 146.019 800.479 143.047C789.149 138.509 770.559 133.412 759.739 127.073C758.379 126.279 756.609 121.051 757.069 118.468C758.219 111.967 760.428 110.267 765.278 106.563Z" fill="#12F7FE" style="fill:#12F7FE;fill:color(display-p3 0.0706 0.9686 0.9961);fill-opacity:1;"/>
<path d="M994.399 281.332C1013.63 284.257 1043.01 353.509 1048.06 372.234C1051.68 385.662 1056.68 394.326 1043.1 402.476C1031.17 402.76 1030.56 394.198 1027.61 384.978C1019.76 359.798 1010.32 335.603 995.469 313.663C986.989 301.15 978.689 291.316 994.399 281.332Z" fill="#F8A0C1" style="fill:#F8A0C1;fill:color(display-p3 0.9725 0.6275 0.7569);fill-opacity:1;"/>
<path d="M261.259 281.014C284.987 277.127 313.045 284.062 317.71 311.31C318.767 317.401 318.219 323.662 316.12 329.476C312.682 338.926 303.52 351.606 298.709 361.226C282.107 394.422 267.403 437.622 265.988 474.936C238.175 474.637 210.36 474.57 182.545 474.735C176.238 454.193 167.996 433.791 152.787 418.217C181.645 355.645 175.025 315.95 250.421 285.06C255.84 284.349 256.584 283.941 261.259 281.014Z" fill="#2E2BC0" style="fill:#2E2BC0;fill:color(display-p3 0.1804 0.1686 0.7529);fill-opacity:1;"/>
<path d="M226.902 314.618L227.478 315.524C206.806 358.73 203.327 399.48 207.826 446.188C208.285 450.951 210.522 462.647 208.418 465.968C201.991 469.537 198.906 459.929 196.584 455.067C191.064 442.377 185.298 429.796 179.29 417.33C186.329 377.929 202.508 345.724 226.902 314.618Z" fill="#9194FA" style="fill:#9194FA;fill:color(display-p3 0.5686 0.5804 0.9804);fill-opacity:1;"/>
<path d="M250.421 285.06C236.258 278.318 239.638 268.735 243.899 256.61C270.334 181.381 340.557 127.311 416.78 109.239C429.88 106.133 452.42 102.598 447.378 124.496C445.442 131.896 429.68 133.881 422.478 136.013C365.805 152.791 316.16 189.816 284.113 239.549C274.757 253.913 269.509 267.191 261.258 281.014C256.583 283.941 255.84 284.349 250.421 285.06Z" fill="#12F7FE" style="fill:#12F7FE;fill:color(display-p3 0.0706 0.9686 0.9961);fill-opacity:1;"/>
<path d="M534.177 0L676.849 0.334991C676.819 7.52499 676.349 24.242 677.539 30.656L677.189 31.957C676.849 35.989 676.879 40.65 676.799 44.748L534.45 44.586L534.31 28.558L534.177 0Z" fill="#FB4DA7" style="fill:#FB4DA7;fill:color(display-p3 0.9843 0.3020 0.6549);fill-opacity:1;"/>
<path d="M579.719 240.953C616.609 238.939 636.769 241.066 672.609 247.58C635.829 283.345 614.378 334.177 605.678 384.222C586.088 382.739 559.415 386.119 540.956 393.079C535.609 395.125 529.94 397.597 524.618 399.811C509.704 378.393 493.773 357.484 480.136 335.08C469.905 318.272 460.235 300.41 450.645 283.186C490.951 258.482 533.145 245.902 579.719 240.953Z" fill="#653BE3" style="fill:#653BE3;fill:color(display-p3 0.3961 0.2314 0.8902);fill-opacity:1;"/>
<path d="M821.888 332.73C828.788 332.247 838.448 345.369 843.158 350.518C876.688 387.133 892.758 427.233 901.268 475.538L785.439 474.47C776.469 474.466 764.189 474.816 755.489 474.059C738.159 445.652 726.398 434.703 700.678 415.211C735.648 368.89 764.908 345.271 821.888 332.73Z" fill="#653BE3" style="fill:#653BE3;fill:color(display-p3 0.3961 0.2314 0.8902);fill-opacity:1;"/>
<path d="M687.638 251.599C741.868 270.016 768.069 285.992 812.569 320.773C772.119 329.247 742.339 347.541 713.829 377.201C704.089 387.353 696.479 397.458 688.249 408.702C667.549 396.36 641.869 389.488 618.359 385.045C633.719 328.835 644.838 293.922 687.638 251.599Z" fill="#653BE3" style="fill:#653BE3;fill:color(display-p3 0.3961 0.2314 0.8902);fill-opacity:1;"/>
<path d="M438.306 290.657C443.38 296.261 455.779 322.259 460.946 330.257C477.413 355.741 493.782 382.791 512.292 406.772C497.892 415.26 490.028 423.061 478.863 435.366C468.073 430.005 450.596 423.354 439.038 418.536C419.899 410.83 400.848 402.907 381.889 394.768C371.563 390.411 357.635 384.02 347.118 381.168C371.661 343.942 402.84 316.737 438.306 290.657Z" fill="#653BE3" style="fill:#653BE3;fill:color(display-p3 0.3961 0.2314 0.8902);fill-opacity:1;"/>
<path d="M339.506 392.146C354.446 398.285 369.754 404.932 384.741 410.75C383.036 414.267 381.087 418.111 379.529 421.651C375.676 430.589 372.057 439.626 368.675 448.752C365.238 457.933 362.298 467.02 359.327 476.339C356.145 476.495 352.655 476.403 349.439 476.392L302.184 475.755C304.138 467.745 306.621 459.874 309.616 452.193C314.07 441.257 318.006 430.38 323.632 419.897C328.653 410.494 333.946 401.24 339.506 392.146Z" fill="#653BE3" style="fill:#653BE3;fill:color(display-p3 0.3961 0.2314 0.8902);fill-opacity:1;"/>
<path d="M396.506 415.829C403.149 418.339 411.76 422.201 418.54 425.06L423.363 427.074C438.711 433.399 454.529 440.283 470.068 445.958C465.508 453.472 461.501 460.844 457.402 468.598C454.615 473.871 454.947 479.967 448.941 478.91C423.546 477.568 398.123 476.831 372.693 476.701C380.021 455.092 388.86 436.581 396.506 415.829Z" fill="#653BE3" style="fill:#653BE3;fill:color(display-p3 0.3961 0.2314 0.8902);fill-opacity:1;"/>
<path d="M237.905 492.324C311.757 486.801 379.357 486.381 453.417 485.339C565.573 484.018 677.738 484.117 789.898 485.637C848.428 485.987 906.938 487.884 965.378 491.326C980.258 492.209 1018.64 494.039 1031.96 496.627C1031.68 499.391 1031.17 502.39 1030.76 505.174L1029.65 510.99C1024.04 509.982 1018.12 508.777 1012.47 508.269L1012.39 523.4C998.368 521.85 977.769 521.832 963.199 521.092C959.289 520.933 955.708 520.899 951.798 520.898L950.729 520.64C945.459 520.649 940.188 520.537 934.928 520.305L934.428 520.409C919.488 518.402 884.358 518.579 868.258 518.389L742.698 517.54C606.018 516.716 469.337 517.163 332.67 518.884C322.304 519.03 312.562 519.825 301.969 519.797C290.77 519.768 280.312 520.373 269.309 520.476C259.34 520.564 251.817 521.006 241.917 521.992C235.759 520.464 238.186 513.512 238.188 507.226C238.096 502.2 238.087 497.368 237.905 492.324Z" fill="#FA9293" style="fill:#FA9293;fill:color(display-p3 0.9804 0.5725 0.5765);fill-opacity:1;"/>
<path d="M336.723 500.348C352.749 500.734 371.153 499.578 387.387 499.097C406.651 498.695 425.918 498.506 445.186 498.528L714.689 498.567C760.369 498.285 806.059 498.759 851.729 499.988C875.859 500.663 911.499 503.315 934.249 502.635C935.659 506.498 935.098 515.887 934.928 520.305L934.428 520.409C919.488 518.402 884.358 518.579 868.258 518.389L742.699 517.54C606.019 516.716 469.338 517.163 332.671 518.884C333.269 513.27 334.705 505.655 336.723 500.348Z" fill="#FB4DA7" style="fill:#FB4DA7;fill:color(display-p3 0.9843 0.3020 0.6549);fill-opacity:1;"/>
<path d="M301.365 502.292C308.214 503.519 303.489 513.639 301.969 519.797C290.77 519.768 280.312 520.373 269.309 520.476C259.34 520.564 251.817 521.006 241.917 521.992C235.759 520.464 238.186 513.512 238.188 507.226C240.225 506.64 240.109 506.64 242.178 506.496C261.623 505.139 282.071 504.438 301.365 502.292Z" fill="#FB4DA7" style="fill:#FB4DA7;fill:color(display-p3 0.9843 0.3020 0.6549);fill-opacity:1;"/>
<path d="M963.168 504.76C979.318 505.358 996.349 506.838 1012.47 508.269L1012.39 523.4C998.368 521.85 977.769 521.832 963.199 521.092L963.168 504.76Z" fill="#F8A0C1" style="fill:#F8A0C1;fill:color(display-p3 0.9725 0.6275 0.7569);fill-opacity:1;"/>
<path d="M301.365 502.292C305.392 501.351 330.94 500.442 336.723 500.348C334.705 505.655 333.269 513.27 332.671 518.884C322.305 519.03 312.562 519.825 301.969 519.797C303.489 513.639 308.214 503.519 301.365 502.292Z" fill="#F7728B" style="fill:#F7728B;fill:color(display-p3 0.9686 0.4471 0.5451);fill-opacity:1;"/>
<path d="M934.249 502.635C939.879 504.077 951.929 502.802 953.959 504.012C957.519 504.459 959.628 504.555 963.168 504.76L963.199 521.092C959.289 520.933 955.708 520.899 951.798 520.898L950.729 520.64C945.459 520.649 940.188 520.537 934.928 520.305C935.098 515.887 935.659 506.498 934.249 502.635Z" fill="#F68B9A" style="fill:#F68B9A;fill:color(display-p3 0.9647 0.5451 0.6039);fill-opacity:1;"/>
<path d="M953.959 504.012C957.519 504.459 959.629 504.555 963.169 504.76L963.199 521.092C959.289 520.933 955.709 520.899 951.799 520.898L950.729 520.64C950.169 515.12 948.119 505.51 953.959 504.012Z" fill="#FB4DA7" style="fill:#FB4DA7;fill:color(display-p3 0.9843 0.3020 0.6549);fill-opacity:1;"/>
<path d="M1154.03 476.57C1159.13 474.811 1158.69 474.674 1164.18 474.816C1166.18 476.663 1170.88 480.323 1172.11 481.664C1184.64 495.327 1191.42 514.551 1194.51 532.329C1196.32 536.049 1199.09 554.038 1199.3 558.581C1214.64 559.884 1231.25 557.382 1246.3 559.535C1247 559.636 1246.23 561.121 1246.18 561.227C1248.58 563.454 1251.35 566.133 1251.15 569.55C1250.21 585.132 1258.35 651.06 1246.27 657.53L1246.12 658.908C1228.58 658.618 1196.38 656.997 1179.71 658.859C1187.35 659.939 1234.23 658.729 1236.02 659.83L1236.24 659.678C1236.34 659.926 1236.58 660.215 1236.02 660.432C1230.17 662.709 1204.51 659.459 1200.8 661.129C1200.4 661.956 1199.94 665.728 1199.57 667.305C1198.83 671.668 1198.47 675.572 1197.81 679.803C1195.8 688.954 1194.94 697.604 1192.15 706.68C1188.25 721.177 1179.61 745.867 1164.31 751.627L1161.27 753.097C1158.55 753.067 1155.84 753.077 1153.12 753.127C1150.97 752.247 1148.97 751.077 1146.83 750.167C1115 722.967 1113.73 629.949 1116.17 589.74C1117.93 558.396 1124.48 493.044 1154.03 476.57Z" fill="#090634" style="fill:#090634;fill:color(display-p3 0.0353 0.0235 0.2039);fill-opacity:1;"/>
<path d="M1154.03 476.57C1159.13 474.811 1158.69 474.674 1164.18 474.816C1166.18 476.663 1170.88 480.323 1172.11 481.664C1184.64 495.327 1191.42 514.551 1194.51 532.329C1196.32 536.049 1199.09 554.038 1199.3 558.581C1190.25 558.073 1184.72 556.31 1178.32 562.136L1177.29 563.081C1170.56 569.968 1166.77 576.496 1164.89 586.043L1164 590.439C1155.91 590.26 1148.13 589.875 1140.01 589.87C1137.4 626.5 1139.03 685.504 1158.38 717.661C1159.99 720.324 1164.85 722.502 1168.08 722.407C1180.58 722.041 1186.02 706.872 1190.52 697.209C1192.83 700.327 1192.56 700.133 1192.3 704.026C1192.24 704.91 1192.19 705.795 1192.15 706.68C1188.25 721.177 1179.61 745.867 1164.31 751.627L1161.27 753.097C1158.55 753.067 1155.84 753.077 1153.12 753.127C1150.97 752.247 1148.97 751.077 1146.83 750.167C1115 722.967 1113.73 629.949 1116.17 589.74C1117.93 558.396 1124.48 493.044 1154.03 476.57Z" fill="#12F7FE" style="fill:#12F7FE;fill:color(display-p3 0.0706 0.9686 0.9961);fill-opacity:1;"/>
<path d="M1140.01 589.87C1140.85 566.693 1146.3 518.218 1166.47 503.965C1180.53 494.035 1191.38 530.063 1193.77 532.781C1194.01 532.63 1194.26 532.48 1194.51 532.329C1196.32 536.049 1199.09 554.038 1199.3 558.581C1190.25 558.073 1184.72 556.31 1178.32 562.136L1177.29 563.081C1170.56 569.968 1166.77 576.496 1164.89 586.043L1164 590.439C1155.91 590.26 1148.13 589.875 1140.01 589.87Z" fill="#2E2BC0" style="fill:#2E2BC0;fill:color(display-p3 0.1804 0.1686 0.7529);fill-opacity:1;"/>
<path d="M1177.29 563.081L1178.32 562.136C1184.72 556.31 1190.25 558.073 1199.3 558.581C1214.64 559.884 1231.25 557.382 1246.3 559.535C1247 559.636 1246.23 561.121 1246.18 561.227C1241.84 566.754 1241.82 571.659 1240.76 578.672C1239.54 571.024 1240.99 568.277 1240.41 562.256C1236.42 570.432 1236.38 577.559 1235.56 586.577L1168.63 586.714L1170.16 582.564C1173.85 572.657 1175.13 573.246 1180.67 566.204C1179.54 565.173 1178.41 564.132 1177.29 563.081Z" fill="#2E2BC0" style="fill:#2E2BC0;fill:color(display-p3 0.1804 0.1686 0.7529);fill-opacity:1;"/>
<path d="M1177.29 563.081L1178.32 562.136C1184.72 556.31 1190.25 558.073 1199.3 558.581C1214.64 559.884 1231.25 557.382 1246.3 559.535C1247 559.636 1246.23 561.121 1246.18 561.227C1241.84 566.754 1241.82 571.659 1240.76 578.672C1239.54 571.024 1240.99 568.277 1240.41 562.256C1222.37 562.878 1204.23 562.037 1186.2 562.605C1184.77 562.65 1181.69 565.417 1180.67 566.204C1179.54 565.173 1178.41 564.132 1177.29 563.081Z" fill="#06031C" style="fill:#06031C;fill:color(display-p3 0.0235 0.0118 0.1098);fill-opacity:1;"/>
<path d="M1246.18 561.227C1248.58 563.454 1251.35 566.133 1251.15 569.55C1250.21 585.132 1258.35 651.06 1246.27 657.53C1245 655.991 1243.36 654.216 1243.18 652.082C1241.19 627.826 1239.92 603.007 1240.76 578.672C1241.82 571.659 1241.84 566.754 1246.18 561.227Z" fill="#A33B48" style="fill:#A33B48;fill:color(display-p3 0.6392 0.2314 0.2824);fill-opacity:1;"/>
<path d="M1179.43 660.725C1168.85 654.303 1164.83 647.453 1162.95 635.069C1160.99 622.146 1159.89 605.639 1163.82 593.137C1164.65 590.478 1165.42 598.973 1163.68 598.958C1162.52 601.463 1163.09 605.67 1163.19 608.578C1163.8 626.618 1163.36 647.907 1179.71 658.859C1187.35 659.939 1234.23 658.729 1236.02 659.83L1236.24 659.678C1236.34 659.926 1236.58 660.215 1236.02 660.432C1230.17 662.709 1204.51 659.459 1200.8 661.129C1200.4 661.956 1199.94 665.728 1199.57 667.305L1198.27 665.133C1196.99 657.617 1187.23 660.803 1179.43 660.725Z" fill="#1A012F" style="fill:#1A012F;fill:color(display-p3 0.1020 0.0039 0.1843);fill-opacity:1;"/>
<path d="M1195.48 679.625L1197.81 679.803C1195.8 688.954 1194.94 697.604 1192.15 706.68C1192.19 705.795 1192.24 704.91 1192.3 704.026C1192.56 700.133 1192.83 700.327 1190.52 697.209C1190.66 696.206 1194.92 681.612 1195.48 679.625Z" fill="#16D6E6" style="fill:#16D6E6;fill:color(display-p3 0.0863 0.8392 0.9020);fill-opacity:1;"/>
<path d="M1198.27 665.133L1199.57 667.305C1198.83 671.668 1198.47 675.572 1197.81 679.803L1195.48 679.625C1196.19 675.464 1197.2 669.167 1198.27 665.133Z" fill="#2492B3" style="fill:#2492B3;fill:color(display-p3 0.1412 0.5725 0.7020);fill-opacity:1;"/>
<path d="M39.8515 475.56C85.1855 466.181 85.9875 565.357 90.8035 592.258C93.0865 635.104 90.8535 707.782 65.3415 744.477C59.8035 752.447 51.1525 754.487 41.9145 753.107C41.2685 752.767 40.4465 752.387 39.7745 752.067C23.5225 743.887 17.1305 723.147 11.6305 707.039C7.9505 691.908 4.76952 678.582 2.98252 662.887C2.05852 659.219 2.2815 656.748 1.8165 653.068C0.951505 649.463 1.09751 648.928 1.03751 645.212C-1.04149 620.892 -0.578483 562.253 7.90452 539.371C10.9825 517.223 19.9425 488.08 39.8515 475.56Z" fill="#12F7FE" style="fill:#12F7FE;fill:color(display-p3 0.0706 0.9686 0.9961);fill-opacity:1;"/>
<path d="M7.90452 539.371L8.83951 539.601C12.6415 528.722 23.9235 497.036 38.2605 504.53C59.5515 515.659 63.6905 574.99 65.0005 594.553C50.0615 598.409 14.6935 632.841 2.65351 644.837L1.03751 645.212C-1.04149 620.892 -0.578483 562.253 7.90452 539.371Z" fill="#2E2BC0" style="fill:#2E2BC0;fill:color(display-p3 0.1804 0.1686 0.7529);fill-opacity:1;"/>
<path d="M2.6535 644.837C14.6935 632.841 50.0615 598.409 65.0005 594.553C65.5025 627.847 65.9465 688.157 44.7195 717.231C34.6635 731.007 22.0565 717.471 16.5375 705.523L11.6305 707.039C7.95049 691.908 4.76951 678.582 2.98251 662.887C2.05851 659.219 2.2815 656.748 1.8165 653.068C0.951498 649.463 1.09751 648.928 1.03751 645.212L2.6535 644.837Z" fill="#090634" style="fill:#090634;fill:color(display-p3 0.0353 0.0235 0.2039);fill-opacity:1;"/>
<path d="M4.25952 662.932C5.02652 665.52 6.35951 672.357 6.67151 675.065C7.93951 686.067 13.5005 695.581 16.5375 705.523L11.6305 707.039C7.95049 691.908 4.76951 678.582 2.98251 662.887L4.25952 662.932Z" fill="#16D6E6" style="fill:#16D6E6;fill:color(display-p3 0.0863 0.8392 0.9020);fill-opacity:1;"/>
<path d="M3.19852 651.452C3.70052 656.055 4.30852 658.086 4.25952 662.932L2.98251 662.887C2.05851 659.219 2.2815 656.748 1.8165 653.068L3.19852 651.452Z" fill="#1A6B8A" style="fill:#1A6B8A;fill:color(display-p3 0.1020 0.4196 0.5412);fill-opacity:1;"/>
<path d="M2.6535 644.837C2.8945 647.037 3.07652 649.242 3.19852 651.452L1.8165 653.068C0.951498 649.463 1.09751 648.928 1.03751 645.212L2.6535 644.837Z" fill="#141B6F" style="fill:#141B6F;fill:color(display-p3 0.0784 0.1059 0.4353);fill-opacity:1;"/>
<path d="M90.8035 592.258L92.1945 590.395C105.584 589.01 147.841 591.677 162.145 592.748C164.304 594.879 163.394 593.655 164.102 597.154C164.068 645.143 160.471 812.567 86.9715 805.217L85.1915 806.357C81.4535 805.447 78.8065 804.077 75.2115 802.977C74.4295 801.657 73.3425 801.457 71.9655 800.897C61.3035 796.847 43.2765 763.677 39.7745 752.067C40.4465 752.387 41.2685 752.767 41.9145 753.107C51.1525 754.487 59.8035 752.447 65.3415 744.477C90.8535 707.782 93.0865 635.104 90.8035 592.258Z" fill="#090634" style="fill:#090634;fill:color(display-p3 0.0353 0.0235 0.2039);fill-opacity:1;"/>
<path d="M39.7745 752.067C40.4465 752.387 41.2685 752.767 41.9145 753.107C43.8945 756.517 45.0165 758.557 46.8515 762.167L48.5165 765.377C48.9455 766.307 49.3755 767.247 49.8045 768.177C52.1995 773.317 55.0205 778.257 58.2395 782.927C60.6345 786.537 67.4545 793.317 68.5225 795.577L71.9655 800.897C61.3035 796.847 43.2765 763.677 39.7745 752.067Z" fill="#141B6F" style="fill:#141B6F;fill:color(display-p3 0.0784 0.1059 0.4353);fill-opacity:1;"/>
<path d="M68.5225 795.577C76.0335 800.647 81.1125 801.667 86.9715 805.217L85.1915 806.357C81.4535 805.447 78.8065 804.077 75.2115 802.977C74.4295 801.657 73.3425 801.457 71.9655 800.897L68.5225 795.577Z" fill="#2492B3" style="fill:#2492B3;fill:color(display-p3 0.1412 0.5725 0.7020);fill-opacity:1;"/>
<path d="M1116.17 589.74C1113.73 629.949 1115 722.967 1146.83 750.167C1148.97 751.077 1150.97 752.247 1153.12 753.127C1156.15 757.577 1155.43 756.507 1152.7 761.227C1148.97 767.707 1145.29 773.887 1140.85 779.927C1138.74 782.377 1136.57 784.747 1134.37 787.117C1131.36 790.317 1128.06 793.227 1124.52 795.827C1122.08 800.057 1123.51 798.267 1126.18 802.257C1122.77 804.057 1119.04 805.437 1115.39 806.757C1108.66 805.927 1105.91 805.607 1099.32 803.467C1094.89 801.127 1091.92 799.707 1088.29 796.097C1045.23 758.557 1041.25 647.245 1042.1 592.69C1066.1 591.383 1092.26 589.769 1116.17 589.74Z" fill="#090634" style="fill:#090634;fill:color(display-p3 0.0353 0.0235 0.2039);fill-opacity:1;"/>
<path d="M1146.83 750.167C1148.97 751.077 1150.97 752.247 1153.12 753.127C1156.15 757.577 1155.43 756.507 1152.7 761.227C1148.97 767.707 1145.29 773.887 1140.85 779.927C1138.74 782.377 1136.57 784.747 1134.37 787.117C1131.36 790.317 1128.06 793.227 1124.52 795.827C1122.08 800.057 1123.51 798.267 1126.18 802.257C1122.77 804.057 1119.04 805.437 1115.39 806.757C1108.66 805.927 1105.91 805.607 1099.32 803.467C1094.89 801.127 1091.92 799.707 1088.29 796.097C1120.94 795.487 1135.31 779.217 1146.83 750.167Z" fill="#F7728B" style="fill:#F7728B;fill:color(display-p3 0.9686 0.4471 0.5451);fill-opacity:1;"/>
<path d="M1099.32 803.467C1115.31 802.947 1111.19 801.107 1124.52 795.827C1122.08 800.057 1123.51 798.267 1126.18 802.257C1122.77 804.057 1119.04 805.437 1115.39 806.757C1108.66 805.927 1105.91 805.607 1099.32 803.467Z" fill="#F68B9A" style="fill:#F68B9A;fill:color(display-p3 0.9647 0.5451 0.6039);fill-opacity:1;"/>
<path d="M212.207 494.434C220.506 493.324 229.521 492.82 237.905 492.324C238.087 497.368 238.097 502.2 238.189 507.226C238.187 513.512 235.759 520.464 241.917 521.992C251.817 521.006 259.34 520.564 269.309 520.476C255.102 596.309 248.679 682.146 258.496 758.937C233.166 747.847 213.121 733.257 191.465 723.357C194.886 710.684 196.16 702.044 197.293 688.928C198.464 670.039 197.928 647.119 197.92 627.924L197.607 524.203C202.52 523.795 207.185 523.053 212.108 522.69C212.202 518.47 212.225 514.25 212.175 510.029L212.408 509.399C212.139 504.415 212.072 499.423 212.207 494.434Z" fill="#37CA8D" style="fill:#37CA8D;fill:color(display-p3 0.2157 0.7922 0.5529);fill-opacity:1;"/>
<path d="M212.207 494.434C220.506 493.324 229.521 492.82 237.905 492.324C238.087 497.368 238.097 502.2 238.189 507.226C238.187 513.512 235.759 520.464 241.917 521.992C240.575 522.132 239.41 522.16 238.068 522.211C238.112 591.171 236.447 665.421 238.584 733.847C233.366 731.127 213.759 722.164 211.496 718.123C212.908 709.673 212.03 669.123 212.022 658.177L212.108 522.69C212.202 518.47 212.225 514.25 212.175 510.029L212.408 509.399C212.139 504.415 212.072 499.423 212.207 494.434Z" fill="#12F7FE" style="fill:#12F7FE;fill:color(display-p3 0.0706 0.9686 0.9961);fill-opacity:1;"/>
<path d="M212.206 494.434C220.505 493.324 229.521 492.82 237.905 492.324C238.087 497.368 238.096 502.2 238.188 507.226C230.958 508.936 220.121 508.831 212.407 509.399C212.138 504.415 212.071 499.423 212.206 494.434Z" fill="#FCC9B7" style="fill:#FCC9B7;fill:color(display-p3 0.9882 0.7882 0.7176);fill-opacity:1;"/>
<path d="M212.408 509.399C220.122 508.831 230.959 508.936 238.189 507.226C238.187 513.512 235.759 520.464 241.917 521.992C240.575 522.132 239.41 522.16 238.068 522.211C233.273 521.791 217.737 522.592 212.108 522.69C212.202 518.47 212.225 514.25 212.175 510.029L212.408 509.399Z" fill="#F8A0C1" style="fill:#F8A0C1;fill:color(display-p3 0.9725 0.6275 0.7569);fill-opacity:1;"/>
<path d="M212.108 522.69L212.022 658.177C212.03 669.123 212.908 709.673 211.496 718.123C210.183 712.103 210.634 687.487 210.634 680.249L210.694 573.614C210.711 559.92 211.13 544.507 210.603 530.793C210.487 527.787 208.57 526.08 206.355 524.621C198.585 526.71 201.826 542.198 201.543 548.521C199.569 592.584 201.857 636.728 200.215 680.82C200.083 684.39 199.589 686.271 197.293 688.928C198.464 670.039 197.928 647.119 197.92 627.924L197.607 524.203C202.52 523.795 207.185 523.053 212.108 522.69Z" fill="#0BC39C" style="fill:#0BC39C;fill:color(display-p3 0.0431 0.7647 0.6118);fill-opacity:1;"/>
<path d="M68.6385 430.313C83.3605 426.978 92.3545 418.208 108.967 429.351C154.926 460.177 162.096 547.428 164.102 597.154C163.394 593.655 164.304 594.879 162.145 592.748C147.841 591.677 105.584 589.01 92.1945 590.395L90.8035 592.258C85.9875 565.357 85.1855 466.181 39.8515 475.56C44.4805 461.701 56.4525 438.632 68.6385 430.313Z" fill="#2E2BC0" style="fill:#2E2BC0;fill:color(display-p3 0.1804 0.1686 0.7529);fill-opacity:1;"/>
<path d="M1121.18 435.091C1121.59 434.56 1122.47 433.855 1122.32 433.093C1119.3 431.37 1117.65 427.431 1120.69 427.399L1120.73 427.521C1123.37 428.773 1127.43 428.596 1130.25 428.611L1131.01 429.15C1135.5 432.293 1138.59 435.317 1142.87 438.489C1149.84 444.764 1161.19 465.861 1164.18 474.816C1158.69 474.674 1159.13 474.811 1154.03 476.57C1124.48 493.044 1117.93 558.396 1116.17 589.74C1092.26 589.769 1066.1 591.383 1042.1 592.69C1042.11 591.61 1042.13 590.53 1042.17 589.45C1043.63 548.809 1054.53 465.901 1084.33 438.385C1100.69 429.472 1102.94 425.619 1121.18 435.091Z" fill="#2E2BC0" style="fill:#2E2BC0;fill:color(display-p3 0.1804 0.1686 0.7529);fill-opacity:1;"/>
<path d="M1121.18 435.091C1121.59 434.56 1122.47 433.855 1122.32 433.093C1119.3 431.37 1117.65 427.431 1120.69 427.399L1120.73 427.521C1123.37 428.773 1127.43 428.596 1130.25 428.611L1131.01 429.15C1135.5 432.293 1138.59 435.317 1142.87 438.489C1149.84 444.764 1161.19 465.861 1164.18 474.816C1158.69 474.674 1159.13 474.811 1154.03 476.57C1143.43 457.639 1137.65 449.102 1121.18 435.091Z" fill="#F68B9A" style="fill:#F68B9A;fill:color(display-p3 0.9647 0.5451 0.6039);fill-opacity:1;"/>
<path d="M1124.4 461.347L1123.67 460.201C1122.81 458.887 1116.64 446.846 1120.65 446.325C1123.13 446.002 1131.08 456.072 1132.91 458.345C1136.46 462.603 1139.35 466.709 1142.65 471.109C1139.72 473.475 1137.95 475.419 1135.24 477.868C1132.18 473.291 1127.14 465.953 1124.4 461.347Z" fill="#F68B9A" style="fill:#F68B9A;fill:color(display-p3 0.9647 0.5451 0.6039);fill-opacity:1;"/>
<path d="M129.236 412.339C139.395 412.268 144.613 411.365 152.787 418.217C167.996 433.791 176.238 454.193 182.545 474.735C183.741 479.652 186.934 491.494 187.49 495.966C195.716 495.262 203.957 494.751 212.207 494.434C212.072 499.423 212.139 504.415 212.408 509.399L212.175 510.029C212.225 514.25 212.202 518.47 212.108 522.69C207.185 523.053 202.52 523.795 197.607 524.203C193.389 524.346 184.953 524.362 181.298 524.966C178.457 526.234 178.489 526.109 175.345 526.406C177.446 539.063 179.062 551.797 180.191 564.578C180.908 573.189 181.282 585.29 182.421 593.481C185.812 656.138 180.537 761.337 130.129 803.857C111.518 815.307 92.7885 819.277 75.2115 802.977C78.8065 804.077 81.4535 805.447 85.1915 806.357L86.9715 805.217C160.471 812.567 164.068 645.143 164.102 597.154C162.096 547.428 154.926 460.177 108.967 429.351C92.3545 418.208 83.3605 426.978 68.6385 430.313C74.5415 425.621 78.0045 423.879 85.1455 421.65C93.0395 416.931 103.048 417.518 111.715 419.727C115.417 420.652 119.026 421.921 122.491 423.517C119.949 420.843 120.49 418.098 121.585 414.977C125.141 412.008 123.873 412.923 129.236 412.339Z" fill="#12F7FE" style="fill:#12F7FE;fill:color(display-p3 0.0706 0.9686 0.9961);fill-opacity:1;"/>
<path d="M129.235 412.339C139.394 412.268 144.613 411.365 152.787 418.217C167.996 433.791 176.238 454.193 182.545 474.735C183.741 479.652 186.934 491.494 187.49 495.966C195.716 495.262 203.956 494.751 212.206 494.434C212.071 499.423 212.138 504.415 212.407 509.399L212.175 510.029C212.225 514.25 212.201 518.47 212.107 522.69C207.184 523.053 202.52 523.795 197.607 524.203C193.389 524.346 184.952 524.362 181.297 524.966C178.456 526.234 178.488 526.109 175.344 526.406C173.669 517.842 171.792 509.32 169.715 500.844C161.774 469.182 151.302 440.797 122.49 423.517C119.948 420.843 120.489 418.098 121.584 414.977C125.14 412.008 123.872 412.923 129.235 412.339Z" fill="#090634" style="fill:#090634;fill:color(display-p3 0.0353 0.0235 0.2039);fill-opacity:1;"/>
<path d="M187.49 495.966C195.716 495.262 203.957 494.751 212.207 494.434C212.072 499.423 212.139 504.415 212.408 509.399L212.175 510.029C212.225 514.25 212.202 518.47 212.108 522.69C207.185 523.053 202.52 523.795 197.607 524.203C193.389 524.346 184.953 524.362 181.298 524.966C181.236 520.933 181.306 517.013 181.009 512.99C176.368 503.937 179.385 501.824 187.49 495.966Z" fill="#FA9293" style="fill:#FA9293;fill:color(display-p3 0.9804 0.5725 0.5765);fill-opacity:1;"/>
<path d="M181.009 512.99C187.478 512.007 206.591 509.024 212.175 510.029C212.225 514.25 212.202 518.47 212.108 522.69C207.185 523.053 202.52 523.795 197.607 524.203C193.389 524.346 184.953 524.362 181.298 524.966C181.236 520.933 181.306 517.013 181.009 512.99Z" fill="#FB4DA7" style="fill:#FB4DA7;fill:color(display-p3 0.9843 0.3020 0.6549);fill-opacity:1;"/>
<path d="M179.956 594.385L182.421 593.481C185.812 656.138 180.537 761.337 130.129 803.857C111.518 815.307 92.7885 819.277 75.2115 802.977C78.8065 804.077 81.4535 805.447 85.1915 806.357C89.6045 807.177 92.4735 807.587 96.9445 807.967C168.861 799.027 170.308 647.462 170.144 594.138C173.226 594.242 176.935 594.461 179.956 594.385Z" fill="#090634" style="fill:#090634;fill:color(display-p3 0.0353 0.0235 0.2039);fill-opacity:1;"/>
<path d="M179.956 594.385L182.421 593.481C185.812 656.138 180.537 761.337 130.129 803.857C111.518 815.307 92.7885 819.277 75.2115 802.977C78.8065 804.077 81.4535 805.447 85.1915 806.357C89.6045 807.177 92.4735 807.587 96.9445 807.967L95.9155 808.927C113.093 815.807 136.908 797.397 145.98 783.077C173.624 739.427 178.368 682.904 180.184 632.393C180.576 621.496 181.786 604.5 179.956 594.385Z" fill="#1B1C9B" style="fill:#1B1C9B;fill:color(display-p3 0.1059 0.1098 0.6078);fill-opacity:1;"/>
<path d="M85.1455 421.65C93.0395 416.931 103.048 417.518 111.715 419.727C115.417 420.652 119.026 421.921 122.491 423.517C151.303 440.797 161.774 469.182 169.715 500.844C171.792 509.32 173.67 517.842 175.345 526.406C177.446 539.063 179.062 551.797 180.191 564.578C180.908 573.189 181.282 585.29 182.421 593.481L179.956 594.385C176.935 594.461 173.226 594.242 170.144 594.138C169.838 587.185 169.403 580.239 168.84 573.303C165.015 526.09 150.51 415.539 85.1455 421.65Z" fill="#2E2BC0" style="fill:#2E2BC0;fill:color(display-p3 0.1804 0.1686 0.7529);fill-opacity:1;"/>
<path d="M332.67 518.884C318.708 596.612 309.583 668.847 314.709 748.127C315.445 759.507 316.16 771.837 316.355 783.217C305.41 778.927 294.346 774.717 283.595 769.977C279.58 698.684 283.619 627.169 295.636 556.785C296.875 549.436 300.397 525.549 301.969 519.797C312.562 519.825 322.304 519.03 332.67 518.884Z" fill="#05796B" style="fill:#05796B;fill:color(display-p3 0.0196 0.4745 0.4196);fill-opacity:1;"/>
<path d="M963.199 521.092C977.769 521.832 998.368 521.85 1012.39 523.4L1012.82 603.195C1006.02 608.224 968.648 636.867 963.408 638.374L963.199 521.092Z" fill="#653BE3" style="fill:#653BE3;fill:color(display-p3 0.3961 0.2314 0.8902);fill-opacity:1;"/>
<path d="M934.928 520.305C940.188 520.537 945.459 520.649 950.729 520.64L951.798 520.898C950.648 524.876 951.059 566.904 951.059 573.179L951.119 715.763L934.989 725.457L934.428 520.409L934.928 520.305Z" fill="#065E5F" style="fill:#065E5F;fill:color(display-p3 0.0235 0.3686 0.3725);fill-opacity:1;"/>
<path d="M1084.39 414.527C1085.2 416.167 1084.97 416.22 1085.2 418.099L1085.29 418.126C1085.59 418.435 1085.62 418.758 1085.75 419.202C1085.57 419.974 1084.89 420.388 1084.31 421.004L1084.88 421.274C1094.99 417.436 1112.66 413.727 1121.33 421.953C1110.08 420.019 1105.08 419.651 1094.27 424.389C1048.09 450.663 1036.91 543.542 1036.12 593.215C1032.52 593.771 1028.52 594.487 1024.94 594.914C1023.95 592.37 1024.16 584.281 1024.1 581.129C1025.46 557.835 1028.14 534.636 1032.13 511.646L1030.76 505.174C1031.17 502.39 1031.68 499.391 1031.96 496.627C1032.98 488.611 1034.87 482.537 1037.14 474.832C1044.66 452.522 1053.05 434.939 1072.82 421.186C1073.11 420.921 1073.4 420.657 1073.7 420.392C1077.54 418.017 1080.54 416.607 1084.39 414.527Z" fill="#2E2BC0" style="fill:#2E2BC0;fill:color(display-p3 0.1804 0.1686 0.7529);fill-opacity:1;"/>
<path d="M1084.39 414.527C1085.2 416.167 1084.97 416.22 1085.2 418.099L1085.29 418.126C1085.59 418.435 1085.62 418.758 1085.75 419.202C1085.57 419.974 1084.89 420.388 1084.31 421.004C1048.65 439.619 1042.03 476.594 1032.13 511.646L1030.76 505.174C1031.17 502.39 1031.68 499.391 1031.96 496.627C1032.98 488.611 1034.87 482.537 1037.14 474.832C1044.66 452.522 1053.05 434.939 1072.82 421.186C1073.11 420.921 1073.4 420.657 1073.7 420.392C1077.54 418.017 1080.54 416.607 1084.39 414.527Z" fill="#06031C" style="fill:#06031C;fill:color(display-p3 0.0235 0.0118 0.1098);fill-opacity:1;"/>
<path d="M1094.27 424.389C1105.08 419.651 1110.08 420.019 1121.33 421.953C1130.58 426.544 1136.38 429.959 1142.87 438.489C1138.59 435.317 1135.5 432.293 1131.01 429.15L1130.25 428.611C1127.43 428.596 1123.37 428.773 1120.73 427.521L1120.69 427.399C1117.65 427.431 1119.3 431.37 1122.32 433.093C1122.47 433.855 1121.59 434.56 1121.18 435.091C1102.94 425.619 1100.69 429.472 1084.33 438.385C1054.53 465.901 1043.63 548.809 1042.17 589.45C1042.13 590.53 1042.11 591.61 1042.1 592.69C1041.25 647.245 1045.23 758.557 1088.29 796.097C1091.92 799.707 1094.89 801.127 1099.32 803.467C1105.91 805.607 1108.66 805.927 1115.39 806.757C1112.58 807.097 1105.38 807.727 1102.99 808.247C1098.63 807.087 1095.45 805.987 1091.26 804.307C1038.4 771.827 1034.87 650.035 1036.12 593.215C1036.91 543.542 1048.09 450.663 1094.27 424.389Z" fill="#12F7FE" style="fill:#12F7FE;fill:color(display-p3 0.0706 0.9686 0.9961);fill-opacity:1;"/>
<path d="M1084.33 438.385C1094.43 421.394 1114.16 417.968 1130.25 428.611C1127.43 428.596 1123.37 428.773 1120.73 427.521L1120.69 427.399C1117.65 427.431 1119.3 431.37 1122.32 433.093C1122.47 433.855 1121.59 434.56 1121.18 435.091C1102.94 425.619 1100.69 429.472 1084.33 438.385Z" fill="#FA9293" style="fill:#FA9293;fill:color(display-p3 0.9804 0.5725 0.5765);fill-opacity:1;"/>
<path d="M963.408 638.374C968.648 636.867 1006.02 608.224 1012.82 603.195C1012.74 615.709 1012.16 632.826 1012.76 645.063C1004.7 650.507 996.729 656.075 988.849 661.764C988.869 670.795 988.759 680.138 989.059 689.139C980.329 695.499 972.508 701.173 963.378 706.997C963.518 686.18 964.478 658.751 963.408 638.374Z" fill="#065E5F" style="fill:#065E5F;fill:color(display-p3 0.0235 0.3686 0.3725);fill-opacity:1;"/>
<path d="M1024.94 594.914C1028.52 594.487 1032.52 593.771 1036.12 593.215C1034.87 650.035 1038.4 771.827 1091.26 804.307L1086.58 807.517C1035.17 777.247 1029.55 692.408 1025.79 638.824C1024.79 624.691 1026.69 608.845 1024.94 594.914Z" fill="#090634" style="fill:#090634;fill:color(display-p3 0.0353 0.0235 0.2039);fill-opacity:1;"/>
<path d="M1080.37 807.077C1074.21 800.187 1063.62 795.017 1057.58 785.057C1027.94 736.157 1023.57 672.945 1022.92 616.905C1022.79 606.197 1022.48 591.416 1024.1 581.129C1024.16 584.281 1023.95 592.37 1024.94 594.914C1026.69 608.845 1024.79 624.691 1025.79 638.824C1029.55 692.408 1035.17 777.247 1086.58 807.517L1091.26 804.307C1095.45 805.987 1098.63 807.087 1102.99 808.247C1105.38 807.727 1112.58 807.097 1115.39 806.757C1119.04 805.437 1122.77 804.057 1126.18 802.257C1123.51 798.267 1122.08 800.057 1124.52 795.827C1128.06 793.227 1131.36 790.317 1134.37 787.117C1136.57 784.747 1138.74 782.377 1140.85 779.927C1145.29 773.887 1148.97 767.707 1152.7 761.227C1155.43 756.507 1156.15 757.577 1153.12 753.127C1155.84 753.077 1158.55 753.067 1161.27 753.097L1164.31 751.627C1155.56 774.277 1142.59 798.657 1119.11 809.137C1104.99 815.447 1093.92 811.897 1080.37 807.077Z" fill="#1B1C9B" style="fill:#1B1C9B;fill:color(display-p3 0.1059 0.1098 0.6078);fill-opacity:1;"/>
<path d="M1140.85 779.927C1143.66 781.057 1143.78 781.087 1146.78 781.587C1138.95 792.327 1136.01 794.087 1126.18 802.257C1123.51 798.267 1122.08 800.057 1124.52 795.827C1128.06 793.227 1131.36 790.317 1134.37 787.117C1136.57 784.747 1138.74 782.377 1140.85 779.927Z" fill="#FA9293" style="fill:#FA9293;fill:color(display-p3 0.9804 0.5725 0.5765);fill-opacity:1;"/>
<path d="M1153.12 753.127C1155.84 753.077 1158.55 753.067 1161.27 753.097C1156 766.037 1155.03 769.197 1146.78 781.587C1143.78 781.087 1143.66 781.057 1140.85 779.927C1145.29 773.887 1148.97 767.707 1152.7 761.227C1155.43 756.507 1156.15 757.577 1153.12 753.127Z" fill="#FA9293" style="fill:#FA9293;fill:color(display-p3 0.9804 0.5725 0.5765);fill-opacity:1;"/>
<path d="M1091.26 804.307C1095.45 805.987 1098.63 807.087 1102.99 808.247C1097.69 810.367 1091.97 808.747 1086.58 807.517L1091.26 804.307Z" fill="#1A012F" style="fill:#1A012F;fill:color(display-p3 0.1020 0.0039 0.1843);fill-opacity:1;"/>
<path d="M1012.47 508.269C1018.12 508.777 1024.04 509.982 1029.65 510.99C1028.93 515.527 1028.31 520.077 1027.78 524.639C1022.65 524.294 1017.51 523.832 1012.39 523.4L1012.47 508.269Z" fill="#FB4DA7" style="fill:#FB4DA7;fill:color(display-p3 0.9843 0.3020 0.6549);fill-opacity:1;"/>
<path d="M1024.01 725.477C1026.01 728.147 1028.51 736.527 1029.73 740.097C955.449 801.667 857.769 842.257 763.319 860.627C741.779 865.027 734.028 848.317 722.388 835.417C669.908 777.267 582.659 763.117 517.741 809.417C506.81 817.217 497.632 825.687 488.139 835.287C479.326 844.197 468.285 860.507 454.795 861.207C438.514 861.817 421.585 857.067 405.732 853.377C326.577 834.947 253.104 800.357 189.647 750.297L178.188 740.737L182.908 726.787C264.03 781.197 355.903 823.107 453.84 833.997C465.759 816.717 480.428 801.507 497.262 788.967C584.919 723.297 691.279 748.547 754.829 833.477C844.259 821.497 951.218 778.897 1024.01 725.477Z" fill="#FB4DA7" style="fill:#FB4DA7;fill:color(display-p3 0.9843 0.3020 0.6549);fill-opacity:1;"/>
<path d="M1011.5 698.434C1014.35 699.402 1013.14 719.922 1013.18 724.267C986.628 740.097 964.488 754.947 936.658 769.957C933.368 770.547 934.878 750.857 934.888 747.627C960.878 731.967 987.389 717.056 1011.5 698.434Z" fill="#065E5F" style="fill:#065E5F;fill:color(display-p3 0.0235 0.3686 0.3725);fill-opacity:1;"/>
<defs>
<linearGradient id="paint0_linear_2017_3265" x1="966.02" y1="955.669" x2="865.548" y2="891.396" gradientUnits="userSpaceOnUse">
<stop stop-color="#02978F" style="stop-color:#02978F;stop-color:color(display-p3 0.0078 0.5922 0.5608);stop-opacity:1;"/>
<stop offset="1" stop-color="#056C9B" style="stop-color:#056C9B;stop-color:color(display-p3 0.0196 0.4235 0.6078);stop-opacity:1;"/>
</linearGradient>
</defs>
</svg>
